<svg width="46" height="46" viewBox="0 0 46 46" fill="none" xmlns="http://www.w3.org/2000/svg">
<path fill-rule="evenodd" clip-rule="evenodd" d="M0 3C0 1.34315 1.34315 0 3 0H43C44.6569 0 46 1.34315 46 3V43C46 44.6569 44.6569 46 43 46H3C1.34315 46 0 44.6569 0 43V3ZM18 13C18 15.7614 15.7614 18 13 18C10.2386 18 8 15.7614 8 13C8 10.2386 10.2386 8 13 8C15.7614 8 18 10.2386 18 13ZM34 38C36.7614 38 39 35.7614 39 33C39 30.2386 36.7614 28 34 28C31.2386 28 29 30.2386 29 33C29 35.7614 31.2386 38 34 38Z" fill="white"/>
</svg>
