<svg width="46" height="46" viewBox="0 0 46 46" fill="none" xmlns="http://www.w3.org/2000/svg">
<path fill-rule="evenodd" clip-rule="evenodd" d="M3 0C1.34375 0 0 1.34326 0 3V43C0 44.6567 1.34375 46 3 46H43C44.6562 46 46 44.6567 46 43V3C46 1.34326 44.6562 0 43 0H3ZM10 16C12.7617 16 15 13.7612 15 11C15 8.23877 12.7617 6 10 6C7.23828 6 5 8.23877 5 11C5 13.7612 7.23828 16 10 16ZM28 23C28 25.7612 25.7617 28 23 28C20.2383 28 18 25.7612 18 23C18 20.2388 20.2383 18 23 18C25.7617 18 28 20.2388 28 23ZM37 41C39.7617 41 42 38.7612 42 36C42 33.2388 39.7617 31 37 31C34.2383 31 32 33.2388 32 36C32 38.7612 34.2383 41 37 41Z" fill="white"/>
</svg>
