<svg width="46" height="46" viewBox="0 0 46 46" fill="none" xmlns="http://www.w3.org/2000/svg">
<path fill-rule="evenodd" clip-rule="evenodd" d="M0 3C0 1.34326 1.34375 0 3 0H43C44.6562 0 46 1.34326 46 3V43C46 44.6567 44.6562 46 43 46H3C1.34375 46 0 44.6567 0 43V3ZM15 10C15 12.7612 12.7617 15 10 15C7.23828 15 5 12.7612 5 10C5 7.23877 7.23828 5 10 5C12.7617 5 15 7.23877 15 10ZM10 41C12.7617 41 15 38.7612 15 36C15 33.2388 12.7617 31 10 31C7.23828 31 5 33.2388 5 36C5 38.7612 7.23828 41 10 41ZM42 10C42 12.7612 39.7617 15 37 15C34.2383 15 32 12.7612 32 10C32 7.23877 34.2383 5 37 5C39.7617 5 42 7.23877 42 10ZM37 41C39.7617 41 42 38.7612 42 36C42 33.2388 39.7617 31 37 31C34.2383 31 32 33.2388 32 36C32 38.7612 34.2383 41 37 41Z" fill="white"/>
</svg>
