<svg width="46" height="46" viewBox="0 0 46 46" fill="none" xmlns="http://www.w3.org/2000/svg">
<path fill-rule="evenodd" clip-rule="evenodd" d="M3 0C1.34375 0 0 1.34326 0 3V43C0 44.6567 1.34375 46 3 46H43C43.5371 46 44.041 45.8589 44.4785 45.6113C44.7793 45.4414 45.0469 45.2212 45.2715 44.9624C45.4004 44.813 45.5137 44.6509 45.6113 44.478C45.8594 44.0415 46 43.5371 46 43V3C46 1.34326 44.6562 0 43 0H3ZM10 15C12.7617 15 15 12.7612 15 10C15 7.23877 12.7617 5 10 5C7.23828 5 5 7.23877 5 10C5 12.7612 7.23828 15 10 15ZM15 36C15 38.7612 12.7617 41 10 41C7.23828 41 5 38.7612 5 36C5 33.2388 7.23828 31 10 31C12.7617 31 15 33.2388 15 36ZM37 15C39.7617 15 42 12.7612 42 10C42 7.23877 39.7617 5 37 5C34.2383 5 32 7.23877 32 10C32 12.7612 34.2383 15 37 15ZM42 36C42 38.7612 39.7617 41 37 41C34.2383 41 32 38.7612 32 36C32 33.2388 34.2383 31 37 31C39.7617 31 42 33.2388 42 36ZM23 28C25.7617 28 28 25.7612 28 23C28 20.2388 25.7617 18 23 18C20.2383 18 18 20.2388 18 23C18 25.7612 20.2383 28 23 28Z" fill="white"/>
</svg>
