<svg width="46" height="46" viewBox="0 0 46 46" fill="none" xmlns="http://www.w3.org/2000/svg">
<path fill-rule="evenodd" clip-rule="evenodd" d="M0 3C0 1.34326 1.34375 0 3 0H43C44.6562 0 46 1.34326 46 3V43C46 44.6567 44.6562 46 43 46H3C1.34375 46 0 44.6567 0 43V3ZM16 9C16 11.7612 13.7617 14 11 14C8.23828 14 6 11.7612 6 9C6 6.23877 8.23828 4 11 4C13.7617 4 16 6.23877 16 9ZM11 27C13.7617 27 16 24.7612 16 22C16 19.2388 13.7617 17 11 17C8.23828 17 6 19.2388 6 22C6 24.7612 8.23828 27 11 27ZM16 36C16 38.7612 13.7617 41 11 41C8.23828 41 6 38.7612 6 36C6 33.2388 8.23828 31 11 31C13.7617 31 16 33.2388 16 36ZM35 14C37.7617 14 40 11.7612 40 9C40 6.23877 37.7617 4 35 4C32.2383 4 30 6.23877 30 9C30 11.7612 32.2383 14 35 14ZM40 23C40 25.7612 37.7617 28 35 28C32.2383 28 30 25.7612 30 23C30 20.2388 32.2383 18 35 18C37.7617 18 40 20.2388 40 23ZM35 42C37.7617 42 40 39.7612 40 37C40 34.2388 37.7617 32 35 32C32.2383 32 30 34.2388 30 37C30 39.7612 32.2383 42 35 42Z" fill="white"/>
</svg>
